<svg width="378" height="378" viewBox="0 0 378 378" fill="none" xmlns="http://www.w3.org/2000/svg">
<path d="M32.3212 101.362L189 14.0143L345.679 101.362V275.638L189 362.986L32.3212 275.638V101.362Z" stroke="#64FFDA" stroke-width="14"/>
<path d="M226.067 211.794C226.067 218.031 224.508 223.581 221.39 228.443C218.272 233.253 213.753 237.032 207.833 239.78C201.913 242.476 194.699 243.823 186.19 243.823C178.209 243.823 170.968 242.608 164.467 240.177C158.019 237.745 152.496 234.31 147.897 229.87L156.063 220.674C159.869 224.215 164.229 227.043 169.144 229.157C174.06 231.218 179.821 232.249 186.427 232.249C190.867 232.249 195.016 231.535 198.874 230.108C202.733 228.628 205.851 226.408 208.229 223.448C210.608 220.436 211.797 216.63 211.797 212.032C211.797 208.491 211.11 205.478 209.736 202.994C208.362 200.51 205.93 198.317 202.442 196.414C198.954 194.458 194.091 192.556 187.854 190.706C180.666 188.592 174.43 186.213 169.144 183.571C163.912 180.875 159.842 177.572 156.935 173.661C154.081 169.749 152.654 164.913 152.654 159.152C152.654 153.709 154.16 148.872 157.173 144.644C160.186 140.416 164.335 137.113 169.62 134.734C174.958 132.303 181.089 131.087 188.013 131.087C195.571 131.087 202.125 132.171 207.674 134.338C213.277 136.452 218.351 139.517 222.896 143.534L214.81 152.493C210.899 149.005 206.697 146.494 202.204 144.961C197.712 143.376 193.14 142.583 188.489 142.583C184.525 142.583 180.878 143.191 177.548 144.406C174.271 145.569 171.629 147.34 169.62 149.718C167.665 152.044 166.687 155.03 166.687 158.677C166.687 161.795 167.532 164.491 169.224 166.763C170.915 169.036 173.769 171.124 177.786 173.026C181.803 174.876 187.273 176.832 194.197 178.893C199.852 180.532 205.085 182.593 209.894 185.077C214.757 187.508 218.668 190.838 221.628 195.066C224.588 199.242 226.067 204.818 226.067 211.794Z" fill="#64FFDA"/>
</svg>
